<?xml version="1.0" encoding="UTF-8"?>
<svg id="Layer_2" data-name="Layer 2" xmlns="http://www.w3.org/2000/svg" viewBox="0 0 477.17 218.05">
  <defs>
    <style>
      .cls-1 {
        fill: #080700;
      }

      .cls-1, .cls-2 {
        stroke-width: 0px;
      }

      .cls-2 {
        fill: #222221;
      }
    </style>
  </defs>
  <g id="outlined">
    <g>
      <g>
        <path class="cls-1" d="M129.93,127.94c-1,1.94-1.93,4.46-1.93,4.46-2,5.5-1.82,5.93-1.82,6.7,0,.44.36.38,1.09-.16.24-.33.48-.52.73-.58.24-.06.48-.03.73.08.48.33.73.66.73.99,0,.66-.49,1.43-1.45,2.31-1.94,1.54-3.4,1.87-4.36.99-.24-.22-.36-.66-.36-1.32,0-3.08,2.02-9.1,4.98-15.63,2.81-6.18,5.44-10.97,6.1-12.18,1.47-2.69,2.41-4.1,6-10.72,5.7-10.51,8.61-15.66,8.36-15.66l-5.45,1.48c-6.79,2.09-13.88,4.1-21.27,6.02-7.4,1.92-13.46,3.27-18.18,4.04l-4.18.82-4.36,7.92c-.97,1.65-2.18,3.27-4.84,8.32l-.71,1.43c-2.3,4.4-4.03,7.61-5.18,9.65-1.15,2.03-1.97,3.05-2.45,3.05-.85,0-1.27-.33-1.27-.99,0-1.21,2.25-4.63,3.82-11.21,2.42-10.12,2.39-9.43,3.37-13.38l.73-2.97-6.55.82c-6.91.88-12.15,1.43-15.73,1.65-3.58.22-8.34.33-14.27.33s-10.7-.11-13.55-.33c-2.85-.22-6.09-.77-9.73-1.65-6.06-1.43-10.73-3.44-14-6.02-3.27-2.58-4.91-5.58-4.91-8.99,0-3.08,1.3-6.18,3.91-9.32,2.61-3.13,6.09-5.96,10.46-8.49l6-2.97c8.12-3.63,16.61-5.44,25.46-5.44,4,0,7.94.44,11.82,1.32,8.97,1.98,15.7,6.32,20.18,13.03l1.27,2.31v.16h.18v.17c1.21,2.2,2,4.26,2.36,6.18.36,1.92.55,4.65.55,8.16v5.94l2.55-.33,2.73-.66,30-53.43,12.55-22.76c3.03-5.61,4.55-8.68,4.55-9.23,0-.66-1.82,1.32-5.45,5.94-4,4.73-7.82,9.95-11.46,15.67-2.55,4.07-4.67,8.16-6.36,12.29-1.7,4.12-2.24,6.46-1.64,7.01.36.22.42.61.18,1.15,0,.44-.27.72-.82.82-.55.11-1.06-.06-1.55-.5-.49-.44-.73-.99-.73-1.65,0-2.31,1.48-6.49,4.45-12.53,2.97-6.04,6.39-11.76,10.27-17.15,2.55-3.41,5.61-7.12,9.18-11.13,3.57-4.01,5.91-6.35,7-7.01.48-.22.91-.33,1.27-.33.97,0,1.51.33,1.64.99v.33c0,.55-.3,1.54-.91,2.97-2.91,5.61-8.09,15.14-15.55,28.61-7.46,13.47-15.43,27.79-23.91,42.96l-8.91,16.32c.12.11,5.76-1.04,16.91-3.46,7.39-1.98,16.3-4.45,26.73-7.42l6-1.81,4-6.76c7.15-12.31,13.76-23.11,19.82-32.4,6.06-9.29,13.33-19.76,21.82-31.41l8.36-11.71c.73-1.1,1.51-1.65,2.36-1.65.73.22,1.09.82,1.09,1.81,0,.77-.3,1.32-.91,1.65-.49.22-3.27,3.9-8.36,11.05-5.7,7.92-10.4,14.59-14.09,20.04-3.7,5.44-8.03,12.07-13,19.87-2.91,4.4-6.46,10.12-10.64,17.15-4.18,7.04-6.21,10.66-6.09,10.88.12.11,4.06-1.04,11.82-3.46,7.76-2.42,12.36-3.9,13.82-4.45.97-.44,1.76-.66,2.36-.66.73,0,1.09.44,1.09,1.32,0,.55-1.03,1.18-3.09,1.9-2.06.72-6.91,2.23-14.55,4.54l-13.82,4.29-9.27,16.98c-6.06,10.99-8.55,14.21-10.09,17.37l-3.61,7.67ZM13.61,91.02c1.7,2.86,5.06,5.25,10.09,7.17,5.03,1.92,11.24,3.11,18.64,3.55,2.18.11,4.97.16,8.36.16,3.76,0,6.91-.05,9.46-.16,4.73-.22,10.64-.71,17.73-1.49,7.09-.77,10.82-1.32,11.18-1.65.24-.22.42-1.62.55-4.21.12-2.58.12-4.7,0-6.35-1.21-9.78-6.43-16.82-15.64-21.11-5.58-2.42-11.46-3.63-17.64-3.63-3.64,0-7.58.44-11.82,1.32-6.79,1.43-13.06,3.79-18.82,7.09-5.76,3.3-9.61,6.82-11.55,10.55-.61,1.1-1,1.95-1.18,2.56-.18.61-.27,1.4-.27,2.39,0,1.65.3,2.91.91,3.79ZM89.8,111.64l2.36-4.45c1.21-2.2,2.06-3.85,2.55-4.95.48-1.1.48-1.7,0-1.81l-1.64.33-1.45.17-.73,2.8c-.97,3.96-2.24,8.14-3.82,12.53-.24.77.67-.77,2.73-4.62Z"/>
        <path class="cls-1" d="M199.27,80.39c-4.12,1.59-7.4,2.56-9.82,2.89-1.21.22-2,.44-2.36.66-.36.22-.85.77-1.45,1.65-1.34,1.54-2.91,3.11-4.73,4.7-1.82,1.6-3.27,2.61-4.36,3.05-1.09.55-2,.82-2.73.82l-1.45-.33c-.73-.33-1.27-.77-1.64-1.32-.24-.88-.36-1.59-.36-2.14,0-1.98.58-4.26,1.73-6.84,1.15-2.58,2.57-4.7,4.27-6.35.61-.66,1.06-1.07,1.36-1.24.3-.16.64-.19,1-.08.6.33.91.66.91.99s-.36.94-1.09,1.81c-1.21,1.32-2.43,3.3-3.64,5.94-1.21,2.64-1.82,4.56-1.82,5.77,0,.77.3,1.15.91,1.15.73,0,1.82-.52,3.27-1.57,1.45-1.04,2.97-2.5,4.55-4.37l2.18-2.47-.91-.66c-1.21-.99-1.82-2.36-1.82-4.12,0-1.98.88-3.98,2.64-6.02,1.76-2.03,3.48-3.11,5.18-3.22.61,0,1.03.06,1.27.17,1.33.66,2,1.81,2,3.46,0,1.54-.55,3.3-1.64,5.28-.97,1.87-1.34,2.8-1.09,2.8.12.11,1.27-.19,3.45-.91,2.18-.71,4.42-1.51,6.73-2.39,2.42-.99,4-1.48,4.73-1.48.61,0,.91.39.91,1.15,0,.55-2.06,1.62-6.18,3.22ZM185.45,80.8c.24-.11.51-.36.82-.74.3-.38.64-.91,1-1.57.97-1.54,1.64-2.8,2-3.79.73-1.98.66-2.97-.18-2.97-.36,0-1.03.44-2,1.32-.97.88-1.73,1.84-2.27,2.89-.55,1.05-.82,2.01-.82,2.89,0,.66.18,1.15.55,1.49.48.44.79.61.91.49Z"/>
        <path class="cls-1" d="M248.36,87.89c-5.94,4.18-9.82,6.27-11.64,6.27-.49,0-1.03-.16-1.64-.49-.49-.22-.85-.71-1.09-1.48-.12-.88.12-2.25.73-4.12.61-1.87,1.45-3.9,2.55-6.1l1.82-4.12c0-.44-1.76.41-5.27,2.56-3.52,2.14-6.85,4.37-10,6.68-1.21.99-2.27,1.79-3.18,2.39-.91.61-1.55.96-1.91,1.07-.24,0-.58-.16-1-.49-.43-.33-.64-.6-.64-.82l3.64-6.76c3.51-6.37,5.09-9.84,4.73-10.39-.24-.11-1.15.16-2.73.82-1.58.66-3.21,1.43-4.91,2.31-5.45,3.41-11.34,8.58-17.64,15.5-1.33,1.54-2.27,2.47-2.82,2.8s-1.12.27-1.73-.16c-.36-.33-.55-.6-.55-.82,0-.33.18-.88.55-1.65.12-.77,1.7-3.79,4.73-9.07,1.33-2.64,2.39-4.54,3.18-5.69.79-1.15,1.36-1.73,1.73-1.73.85,0,1.21.33,1.09.99-.12.66-.85,2.25-2.18,4.78l-2.55,4.78c0,.11,1.39-1.1,4.18-3.63,5.09-4.62,9.82-7.97,14.18-10.06,2.42-.99,4.12-1.48,5.09-1.48.85,0,1.51.22,2,.66.48.33.79.63.91.91.12.27.18.74.18,1.4-.24,1.87-1.52,4.84-3.82,8.9-.97,1.76-1.27,2.47-.91,2.14.85-.44,2-1.21,3.45-2.31,2.79-1.87,5.36-3.38,7.73-4.53,2.36-1.15,3.97-1.73,4.82-1.73.73,0,1.33.22,1.82.66.48.44.73.94.73,1.48s-.61,2.14-1.82,4.78c-2.18,4.62-3.27,7.64-3.27,9.07v.33c0,.22.12.33.36.33l1.27-.66,7.09-4.62c4.61-3.3,8.12-5.71,10.55-7.25,2.42-1.54,3.94-2.31,4.55-2.31.85,0,1.27.28,1.27.82v.17c0,.33-1.21,1.32-3.64,2.97l-10,6.93Z"/>
        <path class="cls-1" d="M267.09,90.78c-3.03,1.81-5.45,2.72-7.27,2.72-.85,0-1.64-.16-2.36-.49-.97-.44-1.66-.99-2.09-1.65-.42-.66-.64-1.54-.64-2.64,0-2.09.82-4.51,2.45-7.26,1.64-2.75,3.67-5.22,6.09-7.42,1.09-.88,2.3-1.68,3.64-2.39,1.33-.71,2.36-1.07,3.09-1.07.48,0,1,.3,1.55.91.55.61.82,1.18.82,1.73,0,1.32-1,3.13-3,5.44-2,2.31-3.73,3.74-5.18,4.29-.24.11-.61.16-1.09.16-.36,0-.91-.16-1.64-.49l-1.45-.66-1.09,2.31c-.61,1.21-1.03,2.45-1.27,3.71-.24,1.27-.18,2.06.18,2.39.12.33.85.49,2.18.49s3.3-.77,5.91-2.31c2.61-1.54,6.94-4.51,13-8.91,2.91-1.98,4.79-3.13,5.64-3.46.85-.33,1.33-.05,1.45.82,0,.33-.34.77-1,1.32-.67.55-1.73,1.38-3.18,2.47-6.79,4.84-11.7,8.16-14.73,9.98ZM262.91,80.47c.48,0,1.21-.38,2.18-1.15.85-.66,1.79-1.65,2.82-2.97,1.03-1.32,1.55-2.2,1.55-2.64,0-.11-.03-.19-.09-.25-.06-.06-.15-.03-.27.08-.61,0-1.94.82-4,2.47-1.34,1.21-2.21,2.12-2.64,2.72-.43.61-.52,1.07-.27,1.4l.73.33Z"/>
        <path class="cls-1" d="M307.91,78c-1.27.66-2.88,1.43-4.82,2.31-5.94,2.86-9.52,4.62-10.73,5.28l-3.64,2.14v1.98c0,2.53-1.27,4.95-3.82,7.26-1.21.99-2.79,1.92-4.73,2.8-1.94.88-3.57,1.43-4.91,1.65l-1.27.16c-.48,0-1.03-.27-1.64-.82-.61-.55-.91-.99-.91-1.32,0-.88,1-2.33,3-4.37,2-2.03,4.46-4.04,7.36-6.02l3.27-2.14c.12-.11-.18-1.1-.91-2.97-.85-1.65-1.27-3.24-1.27-4.78,0-1.43.48-2.72,1.45-3.87.97-1.15,2.55-2.28,4.73-3.38,1.33-.55,2.36-.88,3.09-.99,1.33,0,2,.61,2,1.82,0,.99-.3,1.68-.91,2.06-.61.39-1.21.25-1.82-.41-.12-.22-.3-.33-.55-.33s-.49.06-.73.16c-1.34.66-2.45,1.51-3.36,2.56-.91,1.05-1.36,2.01-1.36,2.89.12.77.45,1.81,1,3.13s.94,2.04,1.18,2.14c.24,0,.7-.14,1.36-.41.67-.27,1.48-.68,2.46-1.24,3.15-1.65,6.82-3.46,11-5.44,4.18-1.98,6.46-2.97,6.82-2.97.48,0,.88.19,1.18.58.3.39.33.74.09,1.07-.49.33-1.36.82-2.64,1.49ZM275.45,98.94c.61,0,1.52-.33,2.73-.99,4.12-1.76,6.67-4.06,7.64-6.93.24-.88.3-1.32.18-1.32-.24-.22-2.06,1.02-5.46,3.71-3.39,2.7-5.33,4.43-5.82,5.2-.36.55-.12.66.73.33Z"/>
        <path class="cls-1" d="M334,43.2c-.24,0-.61-.03-1.09-.08-.49-.06-1.18.58-2.09,1.9s-2.21,3.19-3.91,5.61l-2.36,3.46,3.82-.16,2.55-.17c.97,0,1.51.17,1.64.49.36.22.55.5.55.82s-.12.61-.36.82c-.49.11-1.21.17-2.18.17s-1.94.06-2.91.16l-4.55.16-2.36,3.79c-12.12,19.57-17.39,30.34-15.82,32.32.36.66,1.79.25,4.27-1.24,2.48-1.48,6.57-4.42,12.27-8.82,5.94-4.62,9.09-6.93,9.46-6.93.48,0,.85.27,1.09.82.24.33.24.63,0,.91-.24.28-1.09,1.02-2.55,2.23-1.46,1.21-3.46,2.8-6,4.78-4.73,3.74-7.97,6.18-9.73,7.34-1.76,1.15-3.43,2.06-5,2.72-1.58.77-2.79,1.15-3.64,1.15-.24,0-.73-.11-1.45-.33-1.09-.33-1.64-1.49-1.64-3.46,0-1.76.49-3.96,1.45-6.6.73-1.87,2.36-5.2,4.91-9.98,2.55-4.78,4.91-8.87,7.09-12.28,2.42-3.63,3.64-5.61,3.64-5.94.24-.22-.12-.33-1.09-.33-2.67,0-4.7.03-6.09.08-1.4.06-2.45.08-3.18.08s-1.3-.05-1.73-.16c-.43-.11-.64-.33-.64-.66,0-.55.42-.93,1.27-1.15.85-.22,2.3-.38,4.36-.5,2.79,0,4.79-.05,6-.16l3.27-.16,2-3.13c1.33-2.09,3.18-4.73,5.55-7.92,2.36-3.19,4.15-5.49,5.36-6.92.61-.66,1.21-1.07,1.82-1.24.6-.16,1.09-.02,1.45.41.24.44.36.77.36.99,0,.77-.61,2.25-1.82,4.45-.85,1.76-1.52,2.64-2,2.64Z"/>
        <path class="cls-1" d="M366.15,80.06c-1.85,1.09-3.86,2.07-4.62,2.56-3.12,1.99-6.24,3.98-9.37,5.96-3.07,1.94-6.17,3.91-8.67,6.54-2.76,2.9-4.66,6.48-6.64,9.96-4.48,7.87-4.91,8.86-10.29,16.15-5.92,8.04-6.74,9.35-13.71,15.48-1.85,1.63-4.88,3.59-7.27,4.18-1.41.35-3.06.34-4.11-.66-1.43-1.37-1.01-3.74-.28-5.58,1.42-3.6,3.84-7.37,5.82-9.97,6.24-8.23,11.84-13.57,19.83-20.11,5.17-4.23,10.67-8.19,14.79-13.46,3.82-4.88,6.27-10.68,8.48-16.47-.35.91-2.85,2.72-3.74,3.35l-2.73,2.64c-6.55,6.05-10.97,9.79-13.27,11.21-.97.44-1.88.66-2.73.66-.97,0-1.82-.25-2.55-.74-.73-.49-1.09-1.29-1.09-2.39,0-1.65.55-3.6,1.64-5.85,1.09-2.25,2.61-4.59,4.55-7.01.85-1.1,1.64-1.65,2.36-1.65s1.09.28,1.09.82-.67,1.71-2,3.46c-2.91,4.07-4.48,7.26-4.73,9.56v.82c0,.44.09.72.27.82.18.11.64-.05,1.36-.49,2.67-1.54,7.15-5.33,13.46-11.38,2.55-2.53,4.51-4.4,5.91-5.61,1.39-1.21,2.39-1.87,3-1.98h.55c1.09.11,1.64.82,1.64,2.14,0,2.09-1.7,6.38-5.09,12.86l-1.45,3.13,1.45-.82c3.15-2.31,7.24-5,12.27-8.08.79-.49,9.76-6.73,9.5-3.33-.07.93-1.77,2.14-3.63,3.24ZM302.75,138.08c.21.62.63.74,1.11.74s1.67,0,3-.66c2.55-1.43,5.3-3.09,8.99-6.97,2.83-2.97,5.23-7,7.43-9.45,2.97-4,5.15-7.85,12.18-19.5l1.82-2.97-2.73,2.14c-4.12,3.19-7.1,4.82-13.63,10.92-2.51,2.34-3.97,3.52-7.07,7.09-2.49,2.87-4.62,5.19-6.49,7.84-2.33,3.3-3.62,5.91-4.22,8-.3,1.07-.52,2.42-.38,2.82Z"/>
        <path class="cls-1" d="M363.28,95.64c0,1.1.24,1.79.73,2.06.48.27,1.27.3,2.36.08,1.82-.55,4.36-2.01,7.64-4.37,3.27-2.36,7.94-6.13,14-11.3,5.21-4.4,8.06-6.54,8.55-6.43.61,0,.97.33,1.09.99,0,.33-.7,1.15-2.09,2.47-1.4,1.32-3.73,3.36-7,6.1-5.58,4.73-9.64,7.97-12.18,9.73-5.09,3.63-8.91,5.44-11.46,5.44-2.91,0-4.36-1.65-4.36-4.95,0-4.62,2.67-11.76,8-21.44,3.64-6.7,8.55-14.24,14.73-22.59,6.18-8.35,11.15-14.24,14.91-17.64,2.91-2.86,5.27-4.29,7.09-4.29.97,0,1.45.66,1.45,1.98,0,.66-.52,1.95-1.55,3.87-1.03,1.92-2.4,4.1-4.09,6.51-2.91,4.51-7.49,10.42-13.73,17.73-6.24,7.31-11.36,12.78-15.37,16.41-1.21,1.1-2.09,2.01-2.64,2.72-.55.72-1.12,1.79-1.73,3.22-1.94,3.96-3.27,7.58-4,10.88l-.36,2.8ZM374.74,69.26c0,.11,2-2.03,6-6.43,6.55-7.47,11.76-13.8,15.64-18.96,1.7-2.31,3.3-4.64,4.82-7.01,1.51-2.36,2.21-3.65,2.09-3.87-.24-.22-1.45.82-3.64,3.13-2.18,2.31-4.18,4.56-6,6.76-2.67,3.3-5.7,7.26-9.09,11.87-3.4,4.62-6.18,8.68-8.36,12.2l-1.45,2.31Z"/>
        <path class="cls-1" d="M400.92,90.78c-3.03,1.81-5.45,2.72-7.27,2.72-.85,0-1.64-.16-2.36-.49-.97-.44-1.66-.99-2.09-1.65-.42-.66-.64-1.54-.64-2.64,0-2.09.82-4.51,2.45-7.26,1.64-2.75,3.67-5.22,6.09-7.42,1.09-.88,2.3-1.68,3.64-2.39,1.33-.71,2.36-1.07,3.09-1.07.48,0,1,.3,1.55.91.55.61.82,1.18.82,1.73,0,1.32-1,3.13-3,5.44-2,2.31-3.73,3.74-5.18,4.29-.24.11-.61.16-1.09.16-.36,0-.91-.16-1.64-.49l-1.45-.66-1.09,2.31c-.61,1.21-1.03,2.45-1.27,3.71-.24,1.27-.18,2.06.18,2.39.12.33.85.49,2.18.49s3.3-.77,5.91-2.31c2.61-1.54,6.94-4.51,13-8.91,2.91-1.98,4.79-3.13,5.64-3.46.85-.33,1.33-.05,1.45.82,0,.33-.34.77-1,1.32-.67.55-1.73,1.38-3.18,2.47-6.79,4.84-11.7,8.16-14.73,9.98ZM396.74,80.47c.48,0,1.21-.38,2.18-1.15.85-.66,1.79-1.65,2.82-2.97,1.03-1.32,1.55-2.2,1.55-2.64,0-.11-.03-.19-.09-.25-.06-.06-.15-.03-.27.08-.61,0-1.94.82-4,2.47-1.34,1.21-2.21,2.12-2.64,2.72-.43.61-.52,1.07-.27,1.4l.73.33Z"/>
      </g>
      <g>
        <path class="cls-2" d="M35.7,217.09h-7.05c-.24-1.68-.41-3.14-.47-5.3-2.38,4.33-6.09,6.23-11.71,6.23-12.41,0-16.47-11.22-16.47-28.9v-.78c0-20.17,6.86-29.35,19.26-29.35,15.31,0,16.23,12.77,16.4,16.27v.05h-9.09v-.06c-.17-2.25-.67-8.69-7.58-8.69-7.25,0-9.5,8.86-9.5,21.71v.83c0,13.43,1.82,21.42,9.01,21.42,6.38,0,8.1-4.92,8.1-14.47v-3.22h-8.68v-7.61h17.77v31.88Z"/>
        <path class="cls-2" d="M110.03,187.64v.78c0,20.16-5.49,29.6-18.75,29.6-12.48,0-18.24-9.24-18.24-29.64v-.78c0-19.98,6.74-28.61,18.66-28.61,12.58,0,18.33,9.21,18.33,28.65ZM82.45,187.48v.82c0,14.26,2.55,22.22,9.07,22.22s9.1-7.5,9.1-22.17v-.81c0-14.18-2.45-20.97-9.13-20.97s-9.04,7.43-9.04,20.92Z"/>
        <path class="cls-2" d="M156.82,159.87v39.75c0,5.22,1.44,10.91,8.32,10.91s8.29-4.8,8.29-10.88v-39.79h9.18v39.92c0,10.28-4.07,18.26-17.64,18.26s-17.35-7.49-17.35-18.14v-40.04h9.21Z"/>
        <path class="cls-2" d="M231.09,192v25.09h-9.12v-57.22h17.06c10.44,0,16.22,5.38,16.22,15.29v.07c0,8.37-4.47,11.94-7.71,13.11,4.86,2,6.87,6.03,6.87,14.32v2.22c0,6.06.26,9.14.81,12.21h-8.93c-.85-2.64-.96-7.5-.96-12.31v-1.98c0-7.8-1.76-10.8-8.86-10.8h-5.38ZM231.09,184.74h5.78c6.64,0,9.19-3.08,9.19-9.16v-.06c0-5.2-2.5-8.39-8.31-8.39h-6.66v17.61Z"/>
        <path class="cls-2" d="M329.38,194.75c0-10.07.17-21.1.35-27.43h-.21c-2.07,10.51-6.06,31.44-10.2,49.77h-8.41c-3.07-16.68-7.23-39.04-9.21-49.92h-.29c.35,6.67.61,18.9.61,28.75v21.17h-8.45v-57.22h13.69c3.65,16.52,7.01,34.5,8.26,42.54h.09c1.17-7.24,5.56-26.7,9.18-42.54h13.41v57.22h-8.84v-22.34Z"/>
        <path class="cls-2" d="M406.32,190.95h-19.1v18.46h21.37l-1.16,7.68h-29.27v-57.22h29.08v7.8h-20.02v15.53h19.1v7.74Z"/>
        <path class="cls-2" d="M455.24,167.67h-12.75v-7.8h34.68v7.8h-12.75v49.42h-9.18v-49.42Z"/>
      </g>
    </g>
  </g>
</svg>